<svg width="370" height="126" viewBox="0 0 370 126" fill="none" xmlns="http://www.w3.org/2000/svg">
<path d="M128.81 41.7656L142.29 75.4102L155.771 41.7656H162.822V83H157.385V66.9424L157.895 49.6104L144.357 83H140.194L126.686 49.6953L127.224 66.9424V83H121.786V41.7656H128.81ZM181.627 75.3252L188.764 52.3574H194.371L182.052 87.7295C180.145 92.8271 177.115 95.376 172.961 95.376L171.97 95.291L170.016 94.9229V90.6748L171.432 90.7881C173.206 90.7881 174.585 90.4294 175.566 89.7119C176.567 88.9945 177.388 87.6823 178.03 85.7754L179.191 82.6602L168.26 52.3574H173.98L181.627 75.3252ZM230.338 77.5908C228.941 79.5921 226.987 81.0931 224.476 82.0938C221.983 83.0755 219.076 83.5664 215.753 83.5664C212.392 83.5664 209.409 82.7829 206.804 81.2158C204.198 79.6299 202.178 77.3831 200.743 74.4756C199.327 71.568 198.6 68.1979 198.562 64.3652V60.7686C198.562 54.557 200.007 49.7425 202.896 46.3252C205.803 42.9079 209.881 41.1992 215.13 41.1992C219.435 41.1992 222.899 42.3037 225.523 44.5127C228.148 46.7028 229.753 49.818 230.338 53.8584H224.9C223.881 48.402 220.633 45.6738 215.158 45.6738C211.514 45.6738 208.748 46.9577 206.86 49.5254C204.991 52.0742 204.047 55.7747 204.028 60.627V63.9971C204.028 68.6227 205.086 72.3044 207.2 75.042C209.315 77.7607 212.175 79.1201 215.781 79.1201C217.82 79.1201 219.604 78.8936 221.134 78.4404C222.663 77.9873 223.928 77.2227 224.929 76.1465V66.8857H215.385V62.4678H230.338V77.5908ZM253.419 57.0586C252.626 56.9264 251.767 56.8604 250.842 56.8604C247.406 56.8604 245.074 58.3236 243.847 61.25V83H238.607V52.3574H243.705L243.79 55.8975C245.508 53.1598 247.944 51.791 251.097 51.791C252.116 51.791 252.89 51.9232 253.419 52.1875V57.0586ZM276.047 83C275.745 82.3958 275.499 81.3197 275.311 79.7715C272.875 82.3014 269.967 83.5664 266.588 83.5664C263.567 83.5664 261.084 82.7168 259.14 81.0176C257.214 79.2995 256.251 77.1283 256.251 74.5039C256.251 71.3132 257.459 68.8398 259.876 67.084C262.312 65.3092 265.729 64.4219 270.128 64.4219H275.226V62.0146C275.226 60.1833 274.678 58.7295 273.583 57.6533C272.488 56.5583 270.874 56.0107 268.74 56.0107C266.871 56.0107 265.304 56.4827 264.039 57.4268C262.774 58.3708 262.142 59.513 262.142 60.8535H256.874C256.874 59.3242 257.412 57.8516 258.488 56.4355C259.583 55.0007 261.056 53.8678 262.906 53.0371C264.775 52.2064 266.824 51.791 269.052 51.791C272.582 51.791 275.348 52.6784 277.35 54.4531C279.351 56.209 280.389 58.6351 280.465 61.7314V75.835C280.465 78.6481 280.824 80.8854 281.541 82.5469V83H276.047ZM267.353 79.0068C268.995 79.0068 270.553 78.582 272.025 77.7324C273.498 76.8828 274.565 75.7783 275.226 74.4189V68.1318H271.119C264.7 68.1318 261.49 70.0104 261.49 73.7676C261.49 75.4102 262.038 76.694 263.133 77.6191C264.228 78.5443 265.634 79.0068 267.353 79.0068ZM314.562 68.0186C314.562 72.682 313.496 76.4391 311.362 79.29C309.229 82.141 306.34 83.5664 302.696 83.5664C298.977 83.5664 296.05 82.3864 293.917 80.0264V94.7812H288.678V52.3574H293.464L293.719 55.7559C295.852 53.1126 298.816 51.791 302.611 51.791C306.293 51.791 309.201 53.1787 311.334 55.9541C313.486 58.7295 314.562 62.5905 314.562 67.5371V68.0186ZM309.323 67.4238C309.323 63.9688 308.587 61.2406 307.114 59.2393C305.642 57.238 303.621 56.2373 301.054 56.2373C297.882 56.2373 295.503 57.6439 293.917 60.457V75.0986C295.484 77.8929 297.882 79.29 301.11 79.29C303.621 79.29 305.613 78.2988 307.086 76.3164C308.577 74.3151 309.323 71.3509 309.323 67.4238ZM326.485 56.0674C328.808 53.2165 331.828 51.791 335.548 51.791C342.024 51.791 345.29 55.4443 345.347 62.751V83H340.107V62.7227C340.089 60.5137 339.579 58.8805 338.578 57.8232C337.596 56.766 336.058 56.2373 333.962 56.2373C332.263 56.2373 330.771 56.6904 329.487 57.5967C328.203 58.5029 327.203 59.6924 326.485 61.165V83H321.246V39.5H326.485V56.0674Z" fill="white"/>
<line x1="22.8486" y1="19.9951" x2="22.8486" y2="105.705" stroke="white" stroke-width="6"/>
<line x1="20" y1="103" x2="106" y2="103" stroke="white" stroke-width="6"/>
<ellipse cx="77.5" cy="63" rx="3.5" ry="4" fill="#FF0000"/>
<circle cx="89" cy="34" r="4" fill="#FF0000"/>
<line x1="37.3975" y1="80.5689" x2="65.4999" y2="76.0725" stroke="#FF3535" stroke-width="3"/>
<line x1="64.6347" y1="76.5362" x2="78.1238" y2="61.923" stroke="#FF3535" stroke-width="3"/>
<line x1="77.8041" y1="64.4864" x2="88.1457" y2="33.6862" stroke="#FF3535" stroke-width="3"/>
<circle cx="66" cy="77" r="4" fill="#FF0000"/>
<ellipse cx="37.5" cy="82" rx="3.5" ry="4" fill="#FF0000"/>
</svg>
