<svg width="512" height="512" viewBox="0 0 512 512" fill="none" xmlns="http://www.w3.org/2000/svg">
<rect width="512" height="512" fill="#F0F0F0"/>
<rect x="76" y="76" width="360" height="360" fill="#F0F0F0"/>
<circle cx="256" cy="256" r="135" fill="#FF0000"/>
<path fill-rule="evenodd" clip-rule="evenodd" d="M256 391C330.558 391 391 330.558 391 256C391 247.809 390.271 239.789 388.873 232L256 256V121C181.442 121 121 181.442 121 256C121 293.765 136.507 327.908 161.5 352.409C185.851 376.281 219.206 391 256 391Z" fill="#BA3131"/>
<path d="M256 390.5C330.558 390.5 391 330.058 391 255.5C391 246.958 390.207 238.602 388.69 230.5L256 255.5L128.86 210C123.771 224.216 121 239.534 121 255.5C121 330.058 181.442 390.5 256 390.5Z" fill="#9E0000"/>
</svg>
