<svg width="512" height="512" viewBox="0 0 512 512" fill="none" xmlns="http://www.w3.org/2000/svg">
<rect width="512" height="512" fill="#F0F0F0"/>
<rect x="76" y="76" width="360" height="360" fill="#F0F0F0"/>
<path d="M250 250V135C313.513 135 365 186.008 365 250H250Z" fill="#4C49E2"/>
<path d="M365 250C365 186.487 313.513 135 250 135M365 250H250V135M365 250C365 186.008 313.513 135 250 135" stroke="white" stroke-width="2"/>
<path d="M250 250V308C217.967 308 192 282.274 192 250H250Z" fill="#FF0000"/>
<path d="M192 250C192 282.033 217.967 308 250 308M192 250H250V308M192 250C192 282.274 217.967 308 250 308" stroke="white" stroke-width="2"/>
<path d="M250 250H117C117 176.546 175.992 117 250 117V250Z" fill="#00CA08"/>
<path d="M250 117C176.546 117 117 176.546 117 250M250 117V250H117M250 117C175.992 117 117 176.546 117 250" stroke="white" stroke-width="2"/>
<path d="M250 250L395 250C395 330.081 330.685 395 250 395L250 250Z" fill="#FF7A00"/>
<path d="M250 395C330.081 395 395 330.081 395 250M250 395L250 250L395 250M250 395C330.685 395 395 330.081 395 250" stroke="white" stroke-width="2"/>
</svg>
