<svg width="512" height="512" viewBox="0 0 512 512" fill="none" xmlns="http://www.w3.org/2000/svg">
<rect width="512" height="512" fill="#F0F0F0"/>
<rect x="76" y="76" width="360" height="360" fill="#F0F0F0"/>
<path d="M170.966 189.34L165.059 277.854L248.932 270.773L290.278 325.062L390.689 287.296L292.64 228.286L256.02 102.005L170.966 189.34Z" fill="#D60000" fill-opacity="0.38" stroke="#FF0000"/>
<circle cx="255.997" cy="102.005" r="6.00536" fill="#FF0000"/>
<circle cx="165.059" cy="277.877" r="6.00536" fill="#FF0000"/>
<circle cx="390.689" cy="287.314" r="6.00536" fill="#FF0000"/>
<circle cx="290.314" cy="325.062" r="6.00536" fill="#FF0000"/>
<circle cx="249.134" cy="271.013" r="6.00536" fill="#FF0000"/>
<circle cx="292.887" cy="228.118" r="6.00536" fill="#FF0000"/>
<circle cx="340.93" cy="189.512" r="6.00536" fill="#4C49E2"/>
<circle cx="255.997" cy="149.19" r="6.00536" fill="#4C49E2"/>
<path d="M195.477 209.17L135.89 284.184L181.907 409.995L304.03 353.882L328.809 272.962L341.788 189.088L256.243 148.332L195.477 209.17Z" fill="#1200E0" fill-opacity="0.29" stroke="#4C49E2"/>
<circle cx="195.944" cy="209.244" r="6.00536" fill="#4C49E2"/>
<circle cx="135.89" cy="283.882" r="6.00536" fill="#4C49E2"/>
<circle cx="183.075" cy="409.995" r="6.00536" fill="#4C49E2"/>
<circle cx="255.997" cy="211.818" r="6.00536" fill="#FF7A00"/>
<circle cx="328.92" cy="197.233" r="6.00536" fill="#FF7A00"/>
<circle cx="406.989" cy="293.319" r="6.00536" fill="#FF7A00"/>
<circle cx="310.046" cy="368.815" r="6.00536" fill="#FF7A00"/>
<circle cx="219.107" cy="325.062" r="6.00536" fill="#FF7A00"/>
<circle cx="105.005" cy="289.887" r="6.00536" fill="#FF7A00"/>
<circle cx="135.89" cy="159.485" r="6.00536" fill="#FF7A00"/>
<path d="M254.658 211.522L135.012 159.485L106.721 291.943L222.831 325.648L310.061 368.815L406.131 291.943L327.743 198.513L254.658 211.522Z" fill="#FF7A00" fill-opacity="0.26" stroke="#FF7A00"/>
<ellipse cx="304.469" cy="353.373" rx="5.57641" ry="6.00536" fill="#4C49E2"/>
<circle cx="328.92" cy="271.871" r="6.00536" fill="#4C49E2"/>
<circle cx="171.064" cy="189.512" r="6.00536" fill="#FF0000"/>
</svg>
